<?xml version="1.0" standalone="no"?>
<!DOCTYPE svg PUBLIC "-//W3C//DTD SVG 20010904//EN"
 "http://www.w3.org/TR/2001/REC-SVG-20010904/DTD/svg10.dtd">
<svg version="1.0" xmlns="http://www.w3.org/2000/svg"
 width="512.000000pt" height="512.000000pt" viewBox="0 0 512.000000 512.000000"
 preserveAspectRatio="xMidYMid meet">
<metadata>
Created by potrace 1.14, written by Peter Selinger 2001-2017
</metadata>
<g transform="translate(0.000000,512.000000) scale(0.100000,-0.100000)"
fill="#000000" stroke="none">
<path d="M660 4953 c-34 -12 -92 -44 -109 -61 -9 -9 -28 -35 -42 -57 l-24 -40
-3 -2215 c-3 -2456 -8 -2269 64 -2343 77 -79 -52 -72 1364 -75 l1264 -2 52 25
c29 14 64 41 79 60 56 75 55 59 55 650 l0 545 543 0 c415 1 550 4 578 14 57
20 106 64 134 119 l25 51 0 846 c0 939 3 902 -66 973 -74 76 -35 72 -656 75
l-557 3 -3 632 c-3 707 1 667 -77 742 -70 68 -1 65 -1370 64 -680 0 -1243 -3
-1251 -6z"/>
<path d="M4046 4567 c-38 -81 -141 -183 -219 -217 -31 -14 -56 -27 -56 -30 0
-3 27 -18 61 -34 81 -39 176 -133 214 -213 16 -34 31 -62 34 -62 3 0 20 32 39
71 42 84 134 174 216 209 30 13 55 26 55 29 0 3 -19 13 -43 22 -94 39 -215
162 -247 251 -8 20 -16 37 -20 36 -3 0 -18 -28 -34 -62z"/>
<path d="M4046 967 c-38 -80 -141 -182 -219 -217 -31 -14 -56 -27 -56 -30 0
-3 26 -17 57 -32 88 -42 172 -123 213 -206 18 -39 36 -71 39 -71 3 0 18 28 34
62 38 81 132 174 214 213 34 16 61 31 61 34 0 3 -27 18 -61 34 -81 39 -176
133 -214 213 -16 34 -31 62 -34 62 -3 0 -18 -28 -34 -62z"/>
</g>
</svg>
